<svg width="880" height="557" viewBox="0 0 880 557" fill="none" xmlns="http://www.w3.org/2000/svg">
<path d="M875.6 29.9589C875.6 29.7734 875.6 29.4952 875.5 29.3097C875.4 28.0111 875.2 26.8054 874.9 25.5996C874.8 25.3213 874.8 25.1358 874.7 24.8576C874.6 24.6721 874.6 24.3938 874.5 24.2083C873.9 22.075 873 20.0345 871.9 17.9939C871.8 17.8084 871.7 17.5302 871.5 17.3446C871 16.5099 870.4 15.6751 869.8 14.8403C869.7 14.6548 869.5 14.4693 869.4 14.2838C869.1 13.9128 868.9 13.6346 868.6 13.2636C867.9 12.4288 867.1 11.594 866.2 10.7592L865.6 10.2027L865.3 9.92447C865.2 9.83172 865.1 9.73897 865 9.73897C864.7 9.46071 864.4 9.18246 864.1 8.99695C863.8 8.81145 863.5 8.53319 863.2 8.25494L862.9 7.97668L862.7 7.79117C862.4 7.60567 862.1 7.32741 861.7 7.14191L861.6 7.04916L860.7 6.49264L860.4 6.30714C860.4 6.30714 860.3 6.30714 860.2 6.21439C859.8 6.02888 859.4 5.75063 859 5.56512C858.6 5.28687 858.1 5.10136 857.6 4.82311L857.4 4.73035L856.2 4.17384C855.7 3.98834 855.2 3.80283 854.8 3.61733L853.3 3.06081C851.8 2.59705 850.3 2.22604 848.7 1.94779C848.2 1.85504 847.6 1.76228 847.1 1.66953C846.6 1.57678 846.2 1.57678 845.7 1.48403H845.5C845.3 1.48403 845 1.39128 844.8 1.39128C844.5 1.39128 844.2 1.29852 843.9 1.29852H35.9001C35.6001 1.29852 35.3001 1.29852 35.0001 1.39128C34.8001 1.39128 34.5001 1.39128 34.3001 1.48403H34.1001C33.6001 1.57678 33.2001 1.57678 32.7001 1.66953C32.2001 1.76228 31.6001 1.85504 31.1001 1.94779C29.5001 2.22604 28.0001 2.59705 26.5001 3.06081C26.0001 3.43182 25.5001 3.61733 25.0001 3.80283C24.5001 3.98834 24.0001 4.17384 23.6001 4.35934L22.4001 4.91586L22.2001 5.00861C21.7001 5.19411 21.3001 5.47237 20.8001 5.75063C20.4001 5.93613 20.0001 6.21439 19.6001 6.39989L19.5001 6.49264L19.2001 6.67815L18.3001 7.23466L18.2001 7.32741C17.9001 7.51292 17.6001 7.79117 17.2001 7.97668C17.1001 8.06943 17.0001 8.06943 17.0001 8.16218C16.9001 8.25494 16.8001 8.34769 16.6001 8.44044C16.3001 8.62594 16.0001 8.9042 15.7001 9.08971C15.4001 9.36796 15.1001 9.55347 14.8001 9.83172L14.5001 10.11L14.2001 10.3882L13.6001 10.9447C12.7001 11.7795 11.9001 12.6143 11.2001 13.4491C10.9001 13.8201 10.6001 14.0983 10.4001 14.4693C10.3001 14.6548 10.1001 14.8403 10.0001 15.0258C9.40007 15.8606 8.80007 16.6954 8.30007 17.5302L8.00007 18.0867C6.90007 20.0345 6.00007 22.1678 5.40007 24.3011C5.30007 24.4866 5.30007 24.7648 5.20007 24.9503C5.10007 25.2286 5.10007 25.4141 5.00007 25.6923C4.70007 26.8981 4.50007 28.1039 4.40007 29.4024C4.40007 29.5879 4.40007 29.8662 4.30007 30.1444C4.20007 30.8865 4.20007 31.7212 4.20007 32.4632V524.606C4.20007 525.348 4.20007 526.183 4.30007 526.925L4.40007 527.574C4.50007 528.873 4.80007 530.171 5.10007 531.377C5.20007 531.655 5.20007 531.841 5.30007 532.119C5.30007 532.305 5.40007 532.49 5.40007 532.676C6.00007 534.809 6.90007 536.942 8.10007 538.983L8.50007 539.632C8.80007 540.096 9.00007 540.467 9.30007 540.931L9.70007 541.487L10.1001 542.044C10.5001 542.6 10.9001 543.157 11.4001 543.62C11.6001 543.899 11.8001 544.084 12.0001 544.27C12.3001 544.641 12.6001 544.919 13.0001 545.29L13.6001 545.846C13.9001 546.217 14.3001 546.496 14.7001 546.867C15.4001 547.516 16.2001 548.165 17.1001 548.722C18.3001 549.557 19.6001 550.391 20.9001 551.133C21.3001 551.412 21.8001 551.597 22.3001 551.875C22.4001 551.875 22.4001 551.968 22.5001 551.968L23.7001 552.525C24.2001 552.71 24.7001 552.896 25.1001 553.081L26.6001 553.638C27.1001 553.823 27.6001 553.916 28.1001 554.101C28.6001 554.194 29.1001 554.38 29.6001 554.472C30.1001 554.565 30.6001 554.658 31.2001 554.751C31.7001 554.843 32.3001 554.936 32.8001 555.029C33.3001 555.122 33.7001 555.122 34.2001 555.214H34.9001C35.3001 555.214 35.6001 555.307 36.0001 555.307H844.2C844.6 555.307 844.9 555.307 845.3 555.214H846C846.5 555.122 846.9 555.122 847.4 555.029C847.9 554.936 848.5 554.843 849 554.751C849.5 554.658 850 554.565 850.6 554.472C851.1 554.38 851.6 554.194 852.2 554.101C852.7 553.916 853.2 553.823 853.7 553.638L855.2 553.081C855.7 552.896 856.2 552.71 856.6 552.525L857.8 551.968C857.9 551.968 857.9 551.875 858 551.875C858.5 551.69 858.9 551.412 859.4 551.133C860.7 550.391 862 549.557 863.3 548.722C864.1 548.165 864.9 547.516 865.7 546.867C866.1 546.589 866.4 546.217 866.8 545.846C867 545.661 867.2 545.475 867.4 545.197C867.7 544.919 868 544.548 868.3 544.177C868.5 543.991 868.7 543.713 868.9 543.528C869.3 542.971 869.8 542.507 870.2 541.951L870.6 541.394L871 540.838C871.3 540.374 871.6 540.003 871.8 539.539L872.2 538.89C873.3 536.849 874.2 534.809 874.9 532.583C875 532.397 875 532.212 875 532.026C875.1 531.748 875.1 531.563 875.2 531.284C875.5 530.079 875.7 528.78 875.9 527.482L876 526.832C876.1 526.09 876.1 525.348 876.1 524.513V32.3705C875.7 31.5357 875.7 30.7937 875.6 29.9589ZM28.9001 524.421V32.3705C28.9001 28.0111 32.8001 24.3938 37.5001 24.3938H842.5C847.2 24.3938 851.1 28.0111 851.1 32.3705V524.513C851.1 528.873 847.2 532.49 842.5 532.49H37.5001C32.8001 532.397 28.9001 528.873 28.9001 524.421Z" fill="#030303"/>
<path d="M36.0001 555.122C35.6001 555.122 35.3001 555.122 34.9001 555.029H34.2001C33.7001 554.936 33.3001 554.936 32.8001 554.843C32.3001 554.751 31.7001 554.658 31.2001 554.565C30.7001 554.472 30.2001 554.38 29.6001 554.287C29.1001 554.194 28.6001 554.009 28.1001 553.916H28.0001C27.5001 553.73 27.0001 553.638 26.5001 553.452L25.0001 552.896C24.5001 552.71 24.0001 552.525 23.6001 552.339L22.4001 551.783C22.3001 551.783 22.3001 551.69 22.2001 551.69C21.7001 551.504 21.3001 551.226 20.8001 550.948C19.5001 550.206 18.2001 549.464 17.0001 548.536H16.9001C16.1001 547.98 15.3001 547.331 14.6001 546.681C14.2001 546.403 13.9001 546.032 13.5001 545.661L12.9001 545.104C12.6001 544.733 12.3001 544.455 11.9001 544.084C11.7001 543.899 11.5001 543.62 11.3001 543.435C10.9001 542.878 10.4001 542.415 10.0001 541.858C9.9001 541.673 9.7001 541.487 9.6001 541.302C9.5001 541.116 9.3001 540.931 9.2001 540.745C8.9001 540.281 8.6001 539.91 8.4001 539.447C8.3001 539.261 8.2001 538.983 8.0001 538.797C6.9001 536.85 6.0001 534.716 5.3001 532.49C5.2001 532.305 5.2001 532.119 5.2001 531.934C5.1001 531.655 5.1001 531.47 5.0001 531.192C4.7001 529.986 4.5001 528.687 4.3001 527.389C4.3001 527.203 4.3001 526.925 4.2001 526.74C4.1001 525.998 4.1001 525.256 4.1001 524.421V32.3705C4.1001 31.6285 4.1001 30.7937 4.2001 30.0517C4.2001 29.7735 4.2001 29.588 4.3001 29.3097C4.4001 28.0112 4.6001 26.8054 4.9001 25.5996C5.0001 25.3214 5.0001 25.1359 5.1001 24.8576C5.2001 24.6721 5.2001 24.3938 5.3001 24.2083C5.9001 22.075 6.8001 19.9417 7.9001 17.9939C8.0001 17.8084 8.1001 17.5302 8.3001 17.3447C8.8001 16.5099 9.4001 15.6751 10.0001 14.8404C10.1001 14.6549 10.3001 14.4694 10.4001 14.2839C10.7001 13.9129 10.9001 13.6346 11.2001 13.2636C11.9001 12.4288 12.7001 11.594 13.6001 10.7593L14.2001 10.2028L14.5001 9.92451L14.8001 9.64625C15.1001 9.36799 15.4001 9.08974 15.7001 8.90423C16.0001 8.71873 16.3001 8.44047 16.6001 8.25497C16.7001 8.16222 16.8001 8.06946 17.0001 7.97671L17.2001 7.79121C17.5001 7.6057 17.8001 7.32745 18.2001 7.14194C18.2001 7.14194 18.3001 7.14194 18.3001 7.04919C18.7001 6.77093 19.1001 6.58543 19.5001 6.30717L19.6001 6.21442C20.0001 6.21442 20.4001 6.02892 20.9001 5.75066C21.3001 5.4724 21.8001 5.2869 22.3001 5.00864C22.4001 5.00864 22.4001 4.91589 22.5001 4.91589L23.7001 4.35938C24.2001 4.17387 24.7001 3.98837 25.1001 3.80286L26.6001 3.24635C28.1001 2.78259 29.6001 2.41158 31.2001 2.13333C31.7001 2.04057 32.3001 1.94782 32.8001 1.85507C33.3001 1.76232 33.7001 1.76232 34.2001 1.66956H34.4001C34.6001 1.66956 34.9001 1.57681 35.1001 1.57681C34.9001 1.57681 34.7001 1.57681 34.5001 1.66956C34.0001 1.76232 33.5001 1.76232 33.0001 1.85507C32.8001 1.85507 32.5001 1.94782 32.3001 1.94782C32.0001 1.94782 31.7001 2.04057 31.4001 2.13333C31.0001 2.22608 30.5001 2.31883 30.1001 2.41158C29.6001 2.50433 29.2001 2.59709 28.7001 2.78259C28.3001 2.87534 28.0001 2.9681 27.6001 3.1536C26.8001 3.43186 26.0001 3.71011 25.3001 3.98837C25.1001 4.08112 24.8001 4.17387 24.6001 4.26663C24.2001 4.45213 23.9001 4.54488 23.5001 4.73039C23.5001 4.73039 23.4001 4.73039 23.4001 4.82314C23.0001 5.00864 22.6001 5.19415 22.2001 5.4724H22.1001C21.8001 5.65791 21.5001 5.75066 21.3001 5.93616C21.2001 6.02892 21.0001 6.21442 20.8001 6.30717C20.7001 6.30717 20.7001 6.39993 20.6001 6.39993C20.2001 6.58543 19.9001 6.86369 19.5001 7.14194C19.2001 7.4202 18.8001 7.6057 18.5001 7.88396C18.4001 7.97671 18.3001 7.97671 18.3001 8.06946C18.0001 8.34772 17.6001 8.53323 17.3001 8.81148C16.9001 9.08974 16.6001 9.46075 16.3001 9.739L15.4001 10.5738C15.3001 10.6665 15.2001 10.7593 15.2001 10.852C14.9001 11.1303 14.6001 11.4085 14.4001 11.7796C14.1001 12.1506 13.8001 12.4288 13.5001 12.7998C13.3001 13.0781 13.0001 13.3563 12.8001 13.6346C12.7001 13.8201 12.6001 13.9129 12.5001 14.0984C12.4001 14.2839 12.2001 14.4694 12.1001 14.6549C12.0001 14.8404 11.8001 15.0259 11.7001 15.2114C11.5001 15.5824 11.2001 15.9534 11.0001 16.3244C10.9001 16.5099 10.7001 16.7882 10.6001 17.0664C10.3001 17.6229 10.0001 18.1795 9.8001 18.736C9.7001 18.9215 9.6001 19.107 9.6001 19.2925L9.3001 20.1272C9.2001 20.4983 9.0001 20.8693 8.9001 21.2403C8.8001 21.6113 8.7001 21.9823 8.5001 22.3533V22.446C8.4001 22.9098 8.3001 23.2808 8.2001 23.7446V23.8373C8.1001 24.1156 8.1001 24.4866 8.0001 24.7649C7.7001 26.2489 7.6001 27.8257 7.6001 29.4025V527.203C7.6001 527.76 7.6001 528.316 7.7001 528.873C7.7001 529.151 7.7001 529.429 7.8001 529.708C7.8001 529.986 7.9001 530.171 7.9001 530.45V530.821C7.9001 531.192 8.0001 531.47 8.1001 531.841V531.934C8.1001 532.119 8.2001 532.305 8.2001 532.49C8.2001 532.583 8.2001 532.676 8.3001 532.768V532.861C8.4001 533.139 8.4001 533.418 8.5001 533.696C8.5001 533.789 8.6001 533.974 8.6001 534.067C8.7001 534.438 8.8001 534.902 9.0001 535.273C9.1001 535.644 9.3001 536.108 9.4001 536.479V536.571C9.5001 536.757 9.5001 536.942 9.6001 537.128V537.221C9.7001 537.406 9.8001 537.684 9.9001 537.87V537.963C10.2001 538.519 10.4001 539.076 10.7001 539.632C10.8001 539.91 11.0001 540.096 11.1001 540.374C11.3001 540.745 11.5001 541.116 11.8001 541.487C11.9001 541.673 12.0001 541.858 12.2001 542.044C12.3001 542.229 12.5001 542.415 12.6001 542.6C12.7001 542.786 12.8001 542.878 12.9001 543.064C13.1001 543.342 13.3001 543.62 13.6001 543.899C13.9001 544.27 14.2001 544.641 14.5001 544.919C14.7001 545.197 15.0001 545.475 15.2001 545.661L15.3001 545.754C15.4001 545.847 15.5001 545.939 15.5001 546.032L15.6001 546.125C15.9001 546.403 16.1001 546.681 16.4001 546.867L17.2001 547.609L17.3001 547.702C17.4001 547.794 17.5001 547.887 17.7001 547.98C17.9001 548.165 18.2001 548.444 18.5001 548.629C18.6001 548.722 18.7001 548.722 18.8001 548.815C19.1001 549.093 19.5001 549.371 19.8001 549.557C20.1001 549.742 20.3001 549.928 20.6001 550.113C20.6001 550.113 20.7001 550.113 20.7001 550.206C20.9001 550.299 21.1001 550.484 21.3001 550.577C21.6001 550.762 22.0001 551.041 22.4001 551.226H22.5001C22.7001 551.319 23.0001 551.504 23.2001 551.597C23.3001 551.69 23.5001 551.783 23.6001 551.783C23.9001 551.875 24.1001 552.061 24.4001 552.154C24.7001 552.339 25.1001 552.525 25.5001 552.617C25.8001 552.71 26.0001 552.803 26.3001 552.988C26.4001 552.988 26.5001 553.081 26.6001 553.081L27.5001 553.359C27.7001 553.452 27.9001 553.452 28.0001 553.545H28.1001C28.4001 553.638 28.8001 553.73 29.1001 553.823C29.4001 553.916 29.8001 554.009 30.2001 554.101H30.3001C30.4001 554.101 30.5001 554.194 30.7001 554.194C31.0001 554.287 31.4001 554.38 31.7001 554.38H31.8001C32.1001 554.472 32.4001 554.472 32.7001 554.565C32.9001 554.658 33.2001 554.658 33.4001 554.658C33.9001 554.751 34.4001 554.751 34.9001 554.843C35.0001 555.122 35.5001 555.122 36.0001 555.122Z" fill="url(#paint0_linear_10_85)"/>
<path d="M875.6 32.3705V524.514C875.6 525.256 875.6 526.09 875.5 526.832C875.5 527.018 875.5 527.296 875.4 527.482C875.3 528.78 875.1 530.079 874.7 531.284C874.6 531.563 874.6 531.748 874.5 532.026C874.5 532.212 874.4 532.397 874.4 532.583C873.8 534.809 872.9 536.85 871.7 538.89C871.6 539.076 871.5 539.354 871.3 539.539C871 540.003 870.8 540.374 870.5 540.838C870.4 541.023 870.2 541.209 870.1 541.394C870 541.58 869.8 541.765 869.7 541.951C869.3 542.507 868.9 543.064 868.4 543.528C868.2 543.806 868 543.991 867.8 544.177C867.5 544.548 867.2 544.826 866.8 545.197L866.2 545.754C865.9 546.125 865.5 546.403 865.1 546.774C864.4 547.423 863.6 548.073 862.8 548.629H862.7C861.5 549.464 860.2 550.299 858.9 551.041C858.5 551.319 858 551.504 857.5 551.783C857.4 551.783 857.4 551.875 857.3 551.875L856.1 552.432C855.6 552.617 855.1 552.803 854.7 552.988L853.2 553.545C852.7 553.73 852.2 553.823 851.7 554.009H851.6C851.1 554.101 850.6 554.287 850.1 554.38C849.6 554.472 849.1 554.565 848.5 554.658C848 554.751 847.4 554.843 846.9 554.936C846.4 555.029 846 555.029 845.5 555.122H844.8H845.2C845.7 555.122 846.2 555.029 846.7 554.936C846.9 554.936 847.2 554.843 847.4 554.843C847.7 554.843 848 554.751 848.3 554.658L849.8 554.38L851 554.101C851.3 554.009 851.7 553.916 852 553.823C852.6 553.638 853.2 553.452 853.8 553.174C854.1 553.081 854.3 552.988 854.6 552.803C855 552.617 855.3 552.525 855.7 552.339C856 552.246 856.2 552.061 856.5 551.968C856.6 551.875 856.8 551.783 856.9 551.783C857.2 551.69 857.4 551.504 857.7 551.319C858.1 551.133 858.4 550.855 858.8 550.67C859 550.577 859.2 550.391 859.4 550.299L860.3 549.742C860.6 549.464 861 549.278 861.3 549C861.4 548.907 861.5 548.907 861.6 548.815C861.9 548.629 862.1 548.444 862.4 548.165C862.5 548.073 862.7 547.98 862.8 547.887C863.1 547.609 863.4 547.423 863.7 547.145L864.6 546.31C864.7 546.218 864.8 546.125 864.8 546.032C865.1 545.754 865.4 545.476 865.6 545.104C865.9 544.733 866.2 544.455 866.5 544.084C866.7 543.806 867 543.528 867.2 543.249C867.3 543.064 867.4 542.971 867.5 542.786C867.6 542.6 867.8 542.415 867.9 542.229C868 542.044 868.2 541.858 868.3 541.673C868.5 541.302 868.8 540.931 869 540.56C869.1 540.281 869.3 540.096 869.4 539.818C869.7 539.261 870 538.705 870.2 538.148C870.3 537.963 870.4 537.684 870.5 537.499C870.6 537.313 870.7 537.035 870.8 536.757C871 536.386 871.1 536.015 871.2 535.551C871.3 535.18 871.5 534.716 871.6 534.345L871.9 532.954C872 532.583 872 532.305 872.1 531.934C872.4 530.45 872.5 528.873 872.5 527.296V29.4952C872.5 27.9184 872.4 26.3416 872.1 24.8576C872.1 24.5793 872 24.2083 871.9 23.9301V23.8373C871.8 23.3736 871.7 23.0026 871.6 22.5388V22.446C871.5 22.075 871.4 21.704 871.2 21.333C871.1 20.962 870.9 20.591 870.8 20.22L870.5 19.3852C870.4 19.1997 870.3 19.0142 870.3 18.8287C870 18.2722 869.8 17.7157 869.5 17.1592C869.4 16.8809 869.2 16.6954 869.1 16.4172C868.9 16.0462 868.6 15.6751 868.4 15.3041C868.3 15.1186 868.2 14.9331 868 14.7476C867.9 14.5621 867.7 14.3766 867.6 14.1911C867.5 14.0056 867.4 13.9129 867.3 13.7273C867.1 13.4491 866.9 13.1708 866.6 12.8926C866.3 12.5216 866 12.1506 865.7 11.8723C865.4 11.594 865.1 11.223 864.9 10.9448C864.8 10.852 864.7 10.7593 864.7 10.6665L863.8 9.83176L862.8 8.90423C862.5 8.62598 862.2 8.34772 861.8 8.16222L861.6 7.97671C861.3 7.69846 860.9 7.4202 860.6 7.2347C860.2 6.95644 859.9 6.77093 859.5 6.49268C859.4 6.49268 859.4 6.39993 859.3 6.39993C859.1 6.21442 858.8 6.12167 858.6 5.93616C858.3 5.75066 858.1 5.65791 857.8 5.4724H857.7C857.3 5.2869 856.9 5.1014 856.5 4.82314C856.5 4.82314 856.4 4.82314 856.4 4.73039C856.1 4.54488 855.7 4.35938 855.3 4.26663C855.1 4.17387 854.8 4.08112 854.6 3.98837C853.9 3.71011 853.1 3.43186 852.3 3.1536C851.9 3.06085 851.6 2.87534 851.2 2.78259C850.7 2.68984 850.3 2.50433 849.8 2.41158C849.4 2.31883 849 2.22608 848.5 2.13333C848.2 2.04057 847.9 2.04057 847.6 1.94782C847.4 1.85507 847.1 1.85507 846.9 1.85507C846.4 1.76232 845.9 1.76232 845.4 1.66956C845.2 1.66956 845 1.66956 844.8 1.57681C845 1.57681 845.3 1.57681 845.5 1.66956H845.7C846.2 1.76232 846.6 1.76232 847.1 1.85507C847.6 1.94782 848.2 2.04057 848.7 2.13333C850.3 2.41158 851.8 2.78259 853.3 3.24635L854.8 3.80286C855.3 3.98837 855.8 4.17387 856.2 4.35938L857.4 4.91589C857.5 4.91589 857.5 5.00864 857.6 5.00864C858.1 5.19415 858.5 5.4724 859 5.75066C859.4 5.93616 859.8 6.21442 860.2 6.39993L860.3 6.49268C860.7 6.77093 861.1 6.95644 861.5 7.2347L861.6 7.32745C861.9 7.51295 862.2 7.79121 862.6 7.97671C862.7 8.06946 862.8 8.06946 862.8 8.16222C862.9 8.25497 863 8.34772 863.2 8.44047C863.5 8.62598 863.8 8.90423 864.1 9.08974C864.4 9.36799 864.7 9.5535 865 9.83176L865.3 10.11L865.6 10.3883L866.2 10.9448C867 11.7796 867.8 12.5216 868.6 13.4491C868.9 13.8201 869.2 14.0984 869.4 14.4694C869.5 14.6549 869.7 14.8404 869.8 15.0259C870.4 15.8606 870.9 16.6954 871.5 17.5302C871.6 17.7157 871.7 17.9939 871.9 18.1794C873 20.1272 873.9 22.1678 874.5 24.3938C874.6 24.5793 874.6 24.8576 874.7 25.0431C874.8 25.3214 874.8 25.5069 874.9 25.7851C875.2 26.9909 875.4 28.1967 875.5 29.4952C875.5 29.7735 875.6 29.959 875.6 30.2372V32.3705Z" fill="url(#paint1_linear_10_85)"/>
<path d="M872.6 29.4952V32.3705C872.6 16.9736 859.1 4.45211 842.5 4.45211H37.5001C20.9001 4.45211 7.40015 16.9736 7.40015 32.3705V29.4952C7.40015 27.9184 7.50015 26.3416 7.80015 24.8576C7.80015 24.5793 7.90015 24.2083 8.00015 23.9301V23.8373C8.10015 23.3736 8.20015 23.0025 8.30015 22.5388V22.446C8.40015 22.075 8.50015 21.704 8.70015 21.333C8.80015 20.962 9.00015 20.591 9.10015 20.22L9.40015 19.3852C9.50015 19.1997 9.60015 19.0142 9.60015 18.8287C9.90015 18.2722 10.1001 17.7157 10.4001 17.1592C10.5001 16.8809 10.7001 16.6954 10.8001 16.4171C11.0001 16.0461 11.2001 15.6751 11.5001 15.3041C11.6001 15.1186 11.7001 14.9331 11.9001 14.7476C12.0001 14.5621 12.2001 14.3766 12.3001 14.1911C12.4001 14.0056 12.5001 13.9128 12.6001 13.7273C12.8001 13.4491 13.0001 13.1708 13.3001 12.8926C13.6001 12.5215 13.9001 12.1505 14.2001 11.8723C14.5001 11.594 14.8001 11.223 15.0001 10.9448C15.1001 10.852 15.2001 10.7593 15.2001 10.6665L16.1001 9.83173L17.1001 8.90421C17.4001 8.62596 17.7001 8.3477 18.1001 8.1622L18.3001 7.97669C18.6001 7.69843 19.0001 7.51293 19.3001 7.23467C19.7001 6.95642 20.0001 6.77091 20.4001 6.49266C20.5001 6.49266 20.5001 6.3999 20.6001 6.3999C21.0001 6.2144 21.2001 6.0289 21.5001 5.93614C21.8001 5.75064 22.0001 5.65789 22.3001 5.47238H22.4001C22.8001 5.28688 23.2001 5.10137 23.6001 4.82312C23.6001 4.82312 23.7001 4.82312 23.7001 4.73037C24.0001 4.54486 24.4001 4.35936 24.8001 4.2666C25.0001 4.17385 25.3001 4.0811 25.5001 3.98835C26.2001 3.71009 27.0001 3.43183 27.8001 3.15358C28.2001 3.06083 28.5001 2.87532 28.9001 2.78257C29.4001 2.68982 29.8001 2.50431 30.3001 2.41156C30.7001 2.31881 31.1001 2.22606 31.6001 2.1333C31.9001 2.04055 32.2001 2.04055 32.5001 1.9478C32.7001 1.85505 33.0001 1.85505 33.2001 1.85505C33.7001 1.7623 34.2001 1.7623 34.7001 1.66954C34.9001 1.66954 35.1001 1.66954 35.3001 1.57679C35.6001 1.57679 35.9001 1.48404 36.2001 1.48404H844.2C844.5 1.48404 844.8 1.48404 845.1 1.57679C845.3 1.57679 845.5 1.57679 845.7 1.66954C846.2 1.7623 846.7 1.7623 847.2 1.85505C847.4 1.85505 847.7 1.9478 847.9 1.9478C848.2 1.9478 848.5 2.04055 848.8 2.1333C849.2 2.22606 849.7 2.31881 850.1 2.41156C850.6 2.50431 851 2.59707 851.5 2.78257C851.9 2.87532 852.2 2.96807 852.6 3.15358C853.4 3.43183 854.2 3.71009 854.9 3.98835C855.1 4.0811 855.4 4.17385 855.6 4.2666C856 4.45211 856.3 4.54486 856.7 4.73037C856.7 4.73037 856.8 4.73036 856.8 4.82312C857.2 5.00862 857.6 5.19413 858 5.47238H858.1C858.4 5.65789 858.7 5.75064 858.9 5.93614C859.1 6.0289 859.4 6.2144 859.6 6.3999C859.7 6.3999 859.7 6.49266 859.8 6.49266C860.2 6.67816 860.5 6.95642 860.9 7.23467C861.3 7.51293 861.6 7.69843 861.9 7.97669C862 8.06944 862.1 8.06944 862.1 8.1622C862.4 8.44045 862.8 8.71871 863.1 8.90421C863.5 9.18247 863.8 9.55348 864.1 9.83173L865 10.6665C865.1 10.7593 865.2 10.852 865.2 10.9448C865.5 11.223 865.8 11.5013 866 11.8723C866.3 12.2433 866.6 12.5215 866.9 12.8926C867.1 13.1708 867.4 13.4491 867.6 13.7273C867.7 13.9128 867.8 14.0056 867.9 14.1911C868 14.3766 868.2 14.5621 868.3 14.7476C868.4 14.9331 868.6 15.1186 868.7 15.3041C868.9 15.6751 869.2 16.0461 869.4 16.4171C869.5 16.6026 869.7 16.8809 869.8 17.1592C870.1 17.7157 870.4 18.2722 870.6 18.8287C870.7 19.0142 870.8 19.1997 870.8 19.3852L871.1 20.22C871.2 20.591 871.4 20.962 871.5 21.333C871.6 21.704 871.7 22.075 871.9 22.446V22.5388C872 23.0025 872.1 23.3736 872.2 23.8373V23.9301C872.3 24.2083 872.3 24.5793 872.4 24.8576C872.4 26.3416 872.6 27.9184 872.6 29.4952Z" fill="url(#paint2_linear_10_85)"/>
<path d="M872.6 524.421V527.296C872.6 528.873 872.5 530.357 872.2 531.934C872.1 532.305 872.1 532.583 872 532.954L871.7 534.345C871.6 534.716 871.5 535.18 871.3 535.551C871.2 535.922 871 536.386 870.9 536.757C870.8 537.035 870.7 537.22 870.6 537.499C870.5 537.684 870.4 537.962 870.3 538.148C870 538.704 869.8 539.261 869.5 539.817C869.4 540.096 869.2 540.281 869.1 540.559C868.9 540.931 868.6 541.302 868.4 541.673C868.3 541.858 868.2 542.044 868 542.229C867.9 542.415 867.7 542.6 867.6 542.786C867.5 542.971 867.4 543.064 867.3 543.249C867.1 543.528 866.9 543.806 866.6 544.084C866.3 544.455 866 544.826 865.7 545.104C865.4 545.383 865.1 545.754 864.9 546.032C864.8 546.125 864.7 546.217 864.7 546.31L863.8 547.145C863.5 547.423 863.2 547.701 862.9 547.887C862.8 547.98 862.7 548.072 862.5 548.165C862.3 548.351 862 548.536 861.7 548.814C861.6 548.907 861.5 548.907 861.4 549C861.1 549.278 860.7 549.556 860.4 549.742L859.5 550.298C859.3 550.391 859.1 550.577 858.9 550.67C858.6 550.855 858.2 551.133 857.8 551.319C857.5 551.504 857.3 551.597 857 551.783C856.9 551.875 856.7 551.968 856.6 551.968C856.3 552.061 856.1 552.246 855.8 552.339C855.5 552.525 855.1 552.71 854.7 552.803C854.4 552.896 854.2 552.988 853.9 553.174C853.3 553.359 852.7 553.638 852.1 553.823C851.8 553.916 851.4 554.009 851.1 554.101L849.9 554.38L848.4 554.658C848.1 554.751 847.8 554.751 847.5 554.843C847.3 554.936 847 554.936 846.8 554.936C846.3 555.029 845.8 555.029 845.3 555.122H844.9C844.5 555.122 844.2 555.214 843.8 555.214H35.8001C35.4001 555.214 35.1001 555.214 34.7001 555.122H34.3001C33.8001 555.029 33.3001 555.029 32.8001 554.936C32.6001 554.936 32.3001 554.843 32.1001 554.843C31.8001 554.843 31.5001 554.751 31.2001 554.658H31.1001C30.8001 554.565 30.4001 554.565 30.1001 554.472C30.0001 554.472 29.9001 554.38 29.7001 554.38H29.6001C29.2001 554.287 28.9001 554.194 28.5001 554.101C28.2001 554.009 27.8001 553.916 27.5001 553.823H27.4001C27.2001 553.73 27.0001 553.73 26.9001 553.638L26.0001 553.359C25.9001 553.359 25.8001 553.267 25.7001 553.267C25.4001 553.174 25.2001 553.081 24.9001 552.896C24.5001 552.71 24.2001 552.617 23.8001 552.432C23.5001 552.339 23.3001 552.154 23.0001 552.061C22.9001 551.968 22.7001 551.875 22.6001 551.875C22.3001 551.783 22.1001 551.597 21.9001 551.504H21.8001C21.4001 551.319 21.1001 551.041 20.7001 550.855C20.5001 550.762 20.3001 550.577 20.1001 550.484C20.1001 550.484 20.0001 550.484 20.0001 550.391C19.7001 550.206 19.5001 550.02 19.2001 549.835C18.8001 549.556 18.5001 549.371 18.2001 549.093C18.1001 549 18.0001 549 17.9001 548.907C17.6001 548.722 17.4001 548.536 17.1001 548.258C17.0001 548.165 16.8001 548.072 16.7001 547.98L16.6001 547.887L15.8001 547.145L15.0001 546.403L14.9001 546.31C14.8001 546.217 14.7001 546.125 14.7001 546.032L14.6001 545.939C14.4001 545.661 14.1001 545.383 13.9001 545.197C13.6001 544.826 13.3001 544.548 13.0001 544.177C12.8001 543.899 12.5001 543.62 12.3001 543.342C12.2001 543.157 12.1001 543.064 12.0001 542.878C11.9001 542.693 11.7001 542.507 11.6001 542.322C11.5001 542.136 11.3001 541.951 11.2001 541.765C11.0001 541.394 10.7001 541.023 10.5001 540.652C10.4001 540.374 10.2001 540.189 10.1001 539.91C9.80012 539.354 9.50012 538.797 9.30012 538.241V538.148C9.20012 537.962 9.10012 537.684 9.00012 537.499V537.406C8.90012 537.22 8.80012 537.035 8.80012 536.849V536.757C8.60012 536.386 8.50012 536.015 8.40012 535.551C8.30012 535.18 8.10012 534.716 8.00012 534.345C8.00012 534.252 7.90012 534.067 7.90012 533.974C7.80012 533.696 7.70012 533.418 7.70012 533.139V533.047C7.70012 532.954 7.70012 532.861 7.60012 532.768C7.60012 532.583 7.50012 532.397 7.50012 532.212V532.119C7.40012 531.841 7.40012 531.47 7.30012 531.099V530.728C7.30012 530.45 7.20012 530.264 7.20012 529.986C7.20012 529.708 7.10012 529.429 7.10012 529.151C7.10012 528.594 7.00012 528.038 7.00012 527.481V524.606C7.00012 540.003 20.5001 552.525 37.1001 552.525H842.1C859.1 552.339 872.6 539.818 872.6 524.421Z" fill="url(#paint3_linear_10_85)"/>
<path d="M842.5 1.29852H37.5C19.1 1.29852 4.10005 15.2113 4.10005 32.2777V524.421C4.10005 541.487 19.1 555.4 37.5 555.4H842.5C860.9 555.4 875.9 541.487 875.9 524.421V32.3705C875.9 15.2113 860.9 1.29852 842.5 1.29852ZM875.6 524.421C875.6 525.163 875.6 525.997 875.5 526.74C875.5 526.925 875.5 527.203 875.4 527.389C875.3 528.687 875.1 529.986 874.7 531.192C874.6 531.47 874.6 531.655 874.5 531.934C874.5 532.119 874.4 532.305 874.4 532.49C873.8 534.716 872.9 536.757 871.7 538.797C871.6 538.983 871.5 539.261 871.3 539.447C871 539.91 870.8 540.281 870.5 540.745C870.4 540.931 870.2 541.116 870.1 541.302C870 541.487 869.8 541.673 869.7 541.858C869.3 542.415 868.9 542.971 868.4 543.435C868.2 543.713 868 543.899 867.8 544.084C867.5 544.455 867.2 544.733 866.8 545.104L866.2 545.661C865.9 546.032 865.5 546.31 865.1 546.681C864.4 547.33 863.6 547.98 862.8 548.536H862.7C861.5 549.464 860.2 550.206 858.9 550.948C858.5 551.226 858 551.412 857.5 551.69C857.4 551.69 857.4 551.783 857.3 551.783L856.1 552.339C855.6 552.525 855.1 552.71 854.7 552.896L853.2 553.452C852.7 553.638 852.2 553.73 851.7 553.916H851.6C851.1 554.101 850.6 554.194 850.1 554.287C849.6 554.38 849.1 554.472 848.5 554.565C848 554.658 847.4 554.751 846.9 554.843C846.4 554.936 846 554.936 845.5 555.029H845.3C844.5 555.122 843.8 555.122 843 555.122H36.4001C35.6001 555.122 34.9 555.029 34.1 555.029H33.9001C33.4001 555.029 33 554.936 32.5 554.843C32 554.751 31.4 554.658 30.9 554.565C30.4 554.472 29.9 554.38 29.3 554.287C28.8 554.194 28.3 554.009 27.8 553.916H27.7001C27.2001 553.823 26.7001 553.638 26.2001 553.452L24.7001 552.896C24.2001 552.71 23.7 552.525 23.3 552.339L22.1 551.783C22 551.783 22 551.69 21.9 551.69C21.4 551.504 21 551.226 20.5 550.948C19.2 550.206 17.9 549.464 16.7 548.536H16.6C15.8 547.98 15 547.33 14.3 546.681C13.9 546.403 13.6 546.032 13.2 545.661L12.6 545.104C12.3 544.733 11.9 544.455 11.6 544.084C11.4 543.899 11.2 543.62 11 543.435C10.6 542.878 10.1 542.415 9.70005 541.858C9.50005 541.673 9.40005 541.487 9.30005 541.302C9.20005 541.116 9.00005 540.931 8.90005 540.745C8.60005 540.281 8.30005 539.91 8.10005 539.447C8.00005 539.261 7.80005 539.076 7.70005 538.797C6.60005 536.849 5.70005 534.716 5.00005 532.49C4.90005 532.305 4.90005 532.119 4.90005 531.934C4.80005 531.655 4.80005 531.47 4.70005 531.192C4.40005 529.986 4.20005 528.687 4.00005 527.389C4.00005 527.203 4.00005 526.925 3.90005 526.74C3.80005 525.997 3.80005 525.255 3.80005 524.421V32.3705C3.80005 31.6285 3.80005 30.7937 3.90005 30.0517C3.90005 29.7734 3.90005 29.5879 4.00005 29.3097C4.10005 28.0111 4.30005 26.8054 4.60005 25.5996C4.70005 25.3213 4.70005 25.1358 4.80005 24.8576C4.90005 24.6721 4.90005 24.3938 5.00005 24.2083C5.60005 22.075 6.50005 19.9417 7.60005 17.9939C7.70005 17.8084 7.80005 17.5302 8.00005 17.3446C8.50005 16.5099 9.10005 15.6751 9.70005 14.8403C9.80005 14.6548 10 14.4693 10.1 14.2838C10.4 13.9128 10.6 13.6346 10.9 13.2636C11.6 12.4288 12.4 11.594 13.3 10.7592L13.9 10.2027L14.2 9.92447L14.5 9.64622C14.8 9.36796 15.1 9.0897 15.4 8.9042C15.7 8.7187 16 8.44044 16.3 8.25493C16.4 8.16218 16.5 8.06943 16.7 7.97668L16.9 7.79117C17.2 7.60567 17.5 7.32741 17.9 7.14191C17.9 7.14191 18 7.14191 18 7.04916C18.4 6.7709 18.8 6.5854 19.2 6.30714L19.3 6.21439C20 6.21439 20.4 6.02888 20.9 5.75063C21.3 5.47237 21.8 5.28687 22.3 5.00861C22.4 5.00861 22.4 4.91586 22.5 4.91586L23.7001 4.35934C24.2001 4.17384 24.7 3.98834 25.1 3.80283L26.6 3.24632C28.1 2.78256 29.6001 2.3188 31.2001 2.13329C31.7001 2.04054 32.3 1.94779 32.8 1.85504C33.3 1.76228 33.7001 1.76228 34.2001 1.66953H34.4001C34.6001 1.66953 34.9 1.57678 35.1 1.57678C35.4 1.57678 35.7 1.48403 36 1.48403H844C844.3 1.48403 844.6 1.48403 844.9 1.57678C845.1 1.57678 845.4 1.57678 845.6 1.66953H845.8C846.3 1.66953 846.7 1.76228 847.2 1.85504C847.7 1.94779 848.3 2.04054 848.8 2.13329C850.4 2.41155 851.9 2.78256 853.4 3.24632L854.9 3.80283C855.4 3.98834 855.9 4.17384 856.3 4.35934L857.5 4.91586C857.6 4.91586 857.6 5.00861 857.7 5.00861C858.2 5.19411 858.6 5.47237 859.1 5.75063C859.5 5.93613 859.9 6.21439 860.3 6.39989L860.4 6.49264C860.8 6.7709 861.2 6.95641 861.6 7.23466L861.7 7.32741C862 7.51292 862.3 7.79117 862.7 7.97668C862.8 8.06943 862.9 8.06943 862.9 8.16218C863 8.25494 863.1 8.34769 863.3 8.44044C863.6 8.62594 863.9 8.9042 864.2 9.0897C864.5 9.36796 864.8 9.55346 865.1 9.83172L865.4 10.11L865.7 10.3882L866.3 10.9447C867.1 11.7795 867.9 12.5215 868.7 13.4491C869 13.8201 869.3 14.0983 869.5 14.4693C869.6 14.6548 869.8 14.8403 869.9 15.0258C870.5 15.8606 871 16.6954 871.6 17.5302C871.7 17.7157 871.8 17.9939 872 18.1794C873.1 20.1272 874 22.1678 874.6 24.3938C874.7 24.5793 874.7 24.8576 874.8 25.0431C874.9 25.3213 874.9 25.5068 875 25.7851C875.3 26.9909 875.5 28.1966 875.6 29.4952C875.6 29.7734 875.7 29.9589 875.7 30.2372C875.8 30.9792 875.8 31.7212 875.8 32.556V524.421H875.6Z" fill="url(#paint4_linear_10_85)"/>
<path d="M85.5 1.29853H57.8C57.5 1.29853 57.3 1.11303 57.3 0.83477V0.463761C57.3 0.185504 57.5 0 57.8 0H85.5C85.8 0 86 0.185504 86 0.463761V0.927522C85.9 1.11303 85.7 1.29853 85.5 1.29853Z" fill="url(#paint5_linear_10_85)"/>
<path d="M119.6 1.29853H91.9C91.6 1.29853 91.4 1.11303 91.4 0.83477V0.463761C91.4 0.185504 91.6 0 91.9 0H119.6C119.9 0 120.1 0.185504 120.1 0.463761V0.927522C120.1 1.11303 119.9 1.29853 119.6 1.29853Z" fill="url(#paint6_linear_10_85)"/>
<path d="M4.1 34.5966V64.9265C4.1 65.2975 3.8 65.5758 3.4 65.5758H2.7C2.3 65.5758 2 65.2975 2 64.9265V34.5966C2 34.3183 2.3 34.04 2.7 34.04H3.4C3.8 34.04 4.1 34.3183 4.1 34.5966Z" fill="url(#paint7_linear_10_85)"/>
<path d="M18.5 307.566C20.7091 307.566 22.5 305.905 22.5 303.856C22.5 301.807 20.7091 300.146 18.5 300.146C16.2909 300.146 14.5 301.807 14.5 303.856C14.5 305.905 16.2909 307.566 18.5 307.566Z" stroke="#333333" stroke-width="0.5" stroke-miterlimit="10"/>
<path d="M18.5 271.764C19.2732 271.764 19.9 271.182 19.9 270.465C19.9 269.748 19.2732 269.167 18.5 269.167C17.7268 269.167 17.1 269.748 17.1 270.465C17.1 271.182 17.7268 271.764 18.5 271.764Z" fill="#333333"/>
<path d="M18.5 290.314C20.7091 290.314 22.5 288.653 22.5 286.604C22.5 284.555 20.7091 282.894 18.5 282.894C16.2909 282.894 14.5 284.555 14.5 286.604C14.5 288.653 16.2909 290.314 18.5 290.314Z" fill="url(#paint8_radial_10_85)" stroke="url(#paint9_linear_10_85)" stroke-width="0.5" stroke-miterlimit="10"/>
<defs>
<linearGradient id="paint0_linear_10_85" x1="4.3621" y1="278.428" x2="35.9511" y2="278.428" gradientUnits="userSpaceOnUse">
<stop stop-color="#504359"/>
<stop offset="0.049" stop-color="#413649"/>
<stop offset="0.136" stop-color="#2D2433"/>
<stop offset="0.238" stop-color="#1D1722"/>
<stop offset="0.364" stop-color="#120D16"/>
<stop offset="0.539" stop-color="#0C080F"/>
<stop offset="1" stop-color="#0A060D"/>
</linearGradient>
<linearGradient id="paint1_linear_10_85" x1="844.938" y1="278.39" x2="875.637" y2="278.39" gradientUnits="userSpaceOnUse">
<stop stop-color="#9071A2"/>
<stop offset="0.408" stop-color="#8E70A0"/>
<stop offset="0.563" stop-color="#886B99"/>
<stop offset="0.674" stop-color="#7D628D"/>
<stop offset="0.764" stop-color="#6E557C"/>
<stop offset="0.843" stop-color="#5A4566"/>
<stop offset="0.912" stop-color="#41304A"/>
<stop offset="0.973" stop-color="#24192A"/>
<stop offset="1" stop-color="#150D1A"/>
</linearGradient>
<linearGradient id="paint2_linear_10_85" x1="7.43115" y1="16.9709" x2="872.568" y2="16.9709" gradientUnits="userSpaceOnUse">
<stop stop-color="#43364D"/>
<stop offset="0.478" stop-color="#746080"/>
<stop offset="0.578" stop-color="#705C7B"/>
<stop offset="0.694" stop-color="#63526D"/>
<stop offset="0.818" stop-color="#4E4056"/>
<stop offset="0.947" stop-color="#302736"/>
<stop offset="1" stop-color="#221B26"/>
</linearGradient>
<linearGradient id="paint3_linear_10_85" x1="7.43112" y1="539.823" x2="872.568" y2="539.823" gradientUnits="userSpaceOnUse">
<stop stop-color="#16101A"/>
<stop offset="0.478" stop-color="#3F2E4D"/>
<stop offset="0.616" stop-color="#3B2B48"/>
<stop offset="0.776" stop-color="#30233A"/>
<stop offset="0.946" stop-color="#1D1523"/>
<stop offset="1" stop-color="#16101A"/>
</linearGradient>
<linearGradient id="paint4_linear_10_85" x1="440" y1="1.318" x2="440" y2="555.476" gradientUnits="userSpaceOnUse">
<stop stop-color="#9071A2"/>
<stop offset="0.408" stop-color="#8E70A0"/>
<stop offset="0.563" stop-color="#886B99"/>
<stop offset="0.674" stop-color="#7D628D"/>
<stop offset="0.764" stop-color="#6E557C"/>
<stop offset="0.843" stop-color="#5A4566"/>
<stop offset="0.912" stop-color="#41304A"/>
<stop offset="0.973" stop-color="#24192A"/>
<stop offset="1" stop-color="#150D1A"/>
</linearGradient>
<linearGradient id="paint5_linear_10_85" x1="57.306" y1="0.670598" x2="85.948" y2="0.670598" gradientUnits="userSpaceOnUse">
<stop stop-color="#666666"/>
<stop offset="0.489" stop-color="#BBBBBB"/>
<stop offset="0.631" stop-color="#B8B8B8"/>
<stop offset="0.734" stop-color="#AFAFAF"/>
<stop offset="0.825" stop-color="#9F9F9F"/>
<stop offset="0.908" stop-color="#898989"/>
<stop offset="0.986" stop-color="#6C6C6C"/>
<stop offset="1" stop-color="#666666"/>
</linearGradient>
<linearGradient id="paint6_linear_10_85" x1="91.447" y1="0.670598" x2="120.09" y2="0.670598" gradientUnits="userSpaceOnUse">
<stop stop-color="#666666"/>
<stop offset="0.489" stop-color="#BBBBBB"/>
<stop offset="0.631" stop-color="#B8B8B8"/>
<stop offset="0.734" stop-color="#AFAFAF"/>
<stop offset="0.825" stop-color="#9F9F9F"/>
<stop offset="0.908" stop-color="#898989"/>
<stop offset="0.986" stop-color="#6C6C6C"/>
<stop offset="1" stop-color="#666666"/>
</linearGradient>
<linearGradient id="paint7_linear_10_85" x1="3.05" y1="65.5897" x2="3.05" y2="33.9974" gradientUnits="userSpaceOnUse">
<stop stop-color="#666666"/>
<stop offset="0.489" stop-color="#BBBBBB"/>
<stop offset="0.631" stop-color="#B8B8B8"/>
<stop offset="0.734" stop-color="#AFAFAF"/>
<stop offset="0.825" stop-color="#9F9F9F"/>
<stop offset="0.908" stop-color="#898989"/>
<stop offset="0.986" stop-color="#6C6C6C"/>
<stop offset="1" stop-color="#666666"/>
</linearGradient>
<radialGradient id="paint8_radial_10_85" cx="0" cy="0" r="1" gradientUnits="userSpaceOnUse" gradientTransform="translate(18.47 286.58) scale(4 3.71009)">
<stop stop-color="#2F1840"/>
<stop offset="0.337" stop-color="#2A173B"/>
<stop offset="0.741" stop-color="#1C132C"/>
<stop offset="1" stop-color="#0F0F1F"/>
</radialGradient>
<linearGradient id="paint9_linear_10_85" x1="14.22" y1="286.58" x2="22.72" y2="286.58" gradientUnits="userSpaceOnUse">
<stop stop-color="#524759"/>
<stop offset="0.248" stop-color="#4D4356"/>
<stop offset="0.545" stop-color="#3E374C"/>
<stop offset="0.867" stop-color="#26243D"/>
<stop offset="1" stop-color="#1A1A35"/>
</linearGradient>
</defs>
</svg>
