<?xml version="1.0" encoding="utf-8"?><!--Generator: Adobe Illustrator 23.0.1, SVG Export Plug-In . SVG Version: 6.00 Build 0)--><svg version="1.1" id="main-nav-icon-notification" xmlns="http://www.w3.org/2000/svg" x="0px" y="0px" viewBox="0 0 24 24" style="enable-background:new 0 0 24 24" xml:space="preserve"><linearGradient id="SVGID_1_" gradientUnits="userSpaceOnUse" x1="0.5319" y1="18.6732" x2="23.6431" y2="5.3299"><stop offset="0" style="stop-color:#2563EB"/><stop offset="1" style="stop-color:#60A5FA"/></linearGradient><path style="fill:url(#SVGID_1_)" d="M0.4,18c-0.1,0-0.2,0-0.3-0.1S0,17.7,0,17.6v-0.1L3.9,6.3C4,6.1,4,6,4.2,5.9
	c0.1-0.1,0.3-0.2,0.5-0.2h3.8c0.2,0,0.4,0.1,0.5,0.2C9.2,6,9.3,6.1,9.3,6.3l3.9,11.2v0.1c0,0.1,0,0.2-0.1,0.3
	c-0.1,0-0.2,0.1-0.3,0.1H9.6c-0.2,0-0.4,0-0.5-0.1s-0.2-0.2-0.2-0.3l-0.4-1.2H4.7l-0.4,1.2c0,0.1-0.1,0.2-0.2,0.3
	C4,17.9,3.9,18,3.6,18H0.4z M5.6,12.9h2l-1-3.3L5.6,12.9z M15.9,18c-0.2,0-0.4-0.1-0.5-0.2s-0.2-0.3-0.2-0.4L11.8,6.2V6.1
	c0-0.1,0-0.2,0.1-0.3c0.1-0.1,0.2-0.1,0.3-0.1h3.3c0.2,0,0.4,0.1,0.5,0.2c0.1,0.1,0.2,0.3,0.2,0.4l1.7,6.5l1.7-6.5
	c0-0.1,0.1-0.3,0.2-0.4s0.3-0.2,0.5-0.2h3.3c0.1,0,0.2,0,0.3,0.1C24,5.9,24,6,24,6.1v0.1l-3.3,11.2c0,0.1-0.1,0.3-0.2,0.4
	S20.2,18,20,18H15.9z"/></svg>